<?xml version="1.0" encoding="UTF-8" standalone="no"?>
<svg
   viewBox="0 0 22 22"
   xmlns="http://www.w3.org/2000/svg"
   xmlns:svg="http://www.w3.org/2000/svg">
  <g
     transform="translate(0,-3.3896102)">
    <path
       d="m 7.0000003,12.88961 c -1.662,0 -3,1.338 -3,3 v 4 c 0,1.662 1.338,3 3,3 H 15 c 1.662,0 3,-1.338 3,-3 v -4 c 0,-1.662 -1.338,-3 -3,-3 z m 0,1 H 15 c 1.108,0 2,0.892 2,2 v 4 c 0,1.108 -0.892,2 -2,2 H 7.0000003 c -1.108,0 -2,-0.892 -2,-2 v -4 c 0,-1.108 0.892,-2 2,-2 z"
       fill="#f8f8f2" />
    <path
       d="m 11.000001,5.8896104 c -2.7700007,0 -5.0000007,2.23 -5.0000007,4.9999996 v 3 h 1 v -3 c 0,-2.2159996 1.7840005,-3.9999996 4.0000007,-3.9999996 2.216,0 3.999999,1.784 3.999999,3.9999996 v 3 h 1 v -3 C 16,8.1196104 13.770001,5.8896104 11.000001,5.8896104 Z"
       fill="#f8f8f2" />
  </g>
</svg>
