<?xml version="1.0" encoding="UTF-8" standalone="no"?>
<svg
   viewBox="0 0 30 30"
   version="1.1"
   id="svg14"
   sodipodi:docname="config_down.svg"
   inkscape:version="1.2.2 (b0a8486541, 2022-12-01)"
   xmlns:inkscape="http://www.inkscape.org/namespaces/inkscape"
   xmlns:sodipodi="http://sodipodi.sourceforge.net/DTD/sodipodi-0.dtd"
   xmlns="http://www.w3.org/2000/svg"
   xmlns:svg="http://www.w3.org/2000/svg">
  <defs
     id="defs18" />
  <sodipodi:namedview
     id="namedview16"
     pagecolor="#505050"
     bordercolor="#ffffff"
     borderopacity="1"
     inkscape:showpageshadow="0"
     inkscape:pageopacity="0"
     inkscape:pagecheckerboard="1"
     inkscape:deskcolor="#505050"
     showgrid="false"
     inkscape:zoom="28.233333"
     inkscape:cx="11.883117"
     inkscape:cy="14.98229"
     inkscape:window-width="1920"
     inkscape:window-height="969"
     inkscape:window-x="0"
     inkscape:window-y="1117"
     inkscape:window-maximized="1"
     inkscape:current-layer="g12" />
  <g
     transform="translate(-549.72-579.12)"
     id="g12">
    <circle
       style="fill:#f8f8f2"
       cx="564.63147"
       cy="594.20148"
       r="8.4151554" />
    <circle
       cx="6"
       cy="11"
       r="1"
       fill="#ff79c6"
       transform="translate(553.7202,583.12)" />
    <circle
       cx="11"
       cy="11"
       r="1"
       fill="#ff79c6"
       transform="translate(553.7202,583.12)" />
    <circle
       cx="16"
       cy="11"
       r="1"
       fill="#ff79c6"
       transform="translate(553.7202,583.12)" />
    <path
       d="m 10.99,2 a 9,9 0 0 0 -8.9902,9 9,9 0 0 0 9,9 9,9 0 0 0 9,-9 9,9 0 0 0 -9,-9 9,9 0 0 0 -0.0098,0 z m 0.0098,1 a 8,8 0 0 1 8,8 8,8 0 0 1 -8,8 8,8 0 0 1 -8,-8 8,8 0 0 1 8,-8 z"
       fill="#ff79c6"
       transform="translate(553.7202,583.12)" />
  </g>
</svg>
