<?xml version="1.0" encoding="UTF-8" standalone="no"?>
<svg
   viewBox="0 0 30 30"
   version="1.1"
   id="svg229"
   sodipodi:docname="left.svg"
   inkscape:version="1.2.2 (b0a8486541, 2022-12-01)"
   xmlns:inkscape="http://www.inkscape.org/namespaces/inkscape"
   xmlns:sodipodi="http://sodipodi.sourceforge.net/DTD/sodipodi-0.dtd"
   xmlns:xlink="http://www.w3.org/1999/xlink"
   xmlns="http://www.w3.org/2000/svg"
   xmlns:svg="http://www.w3.org/2000/svg">
  <sodipodi:namedview
     id="namedview231"
     pagecolor="#505050"
     bordercolor="#ffffff"
     borderopacity="1"
     inkscape:showpageshadow="0"
     inkscape:pageopacity="0"
     inkscape:pagecheckerboard="1"
     inkscape:deskcolor="#505050"
     showgrid="false"
     inkscape:zoom="18.852711"
     inkscape:cx="5.2777555"
     inkscape:cy="18.140627"
     inkscape:window-width="1920"
     inkscape:window-height="969"
     inkscape:window-x="0"
     inkscape:window-y="1117"
     inkscape:window-maximized="1"
     inkscape:current-layer="svg229" />
  <defs
     id="defs200">
    <linearGradient
       id="linearGradient1605"
       inkscape:swatch="solid">
      <stop
         style="stop-color:#000000;stop-opacity:1;"
         offset="0"
         id="stop1603" />
    </linearGradient>
    <linearGradient
       y2="12.318"
       x2="48.41"
       y1="32.21"
       x1="48.35"
       gradientTransform="matrix(.41317 0 0 1.49415 558.94 564.94)"
       gradientUnits="userSpaceOnUse"
       id="3"
       xlink:href="#2" />
    <linearGradient
       id="2">
      <stop
         stop-color="#515a63"
         id="stop193" />
      <stop
         offset="1"
         stop-color="#474f57"
         id="stop195" />
    </linearGradient>
    <linearGradient
       y2="12.318"
       x2="48.41"
       y1="32.21"
       x1="48.35"
       gradientTransform="matrix(.41317 0 0 1.29493 538.94 567.36)"
       gradientUnits="userSpaceOnUse"
       id="0"
       xlink:href="#2" />
    <linearGradient
       xlink:href="#2"
       id="1"
       x1="613.12"
       x2="583.12"
       gradientUnits="userSpaceOnUse" />
  </defs>
  <g
     transform="translate(-553.72-583.12)"
     id="g227">
    <g
       color="#000"
       id="g208">
      <path
         fill="url(#0)"
         d="m553.72 583.12h10v26h-10z"
         id="path202"
         style="fill:#282a36;fill-opacity:1" />
      <rect
         width="30"
         height="30"
         x="583.12"
         y="-583.72"
         rx="4"
         transform="matrix(0 1-1 0 0 0)"
         fill="url(#1)"
         id="rect204"
         style="fill:#282a36;fill-opacity:1" />
      <path
         fill="url(#3)"
         d="m573.72 583.12h10v30h-10z"
         id="path206"
         style="fill:#282a36;fill-opacity:1" />
    </g>
    <path
       transform="matrix(0 1-1 0 0 0)"
       fill="#bd93f9"
       d="m583.12-583.72h2v30h-2z"
       id="path210" />
    <g
       fill="#000"
       id="g213"
       transform="">
      <path
         style="fill:#ff79c6;stroke-width:1.30882;image-rendering:auto;fill-opacity:1"
         class="ColorScheme-Text"
         d="m 559.55822,588.95823 c 0,0 -1.30883,0 -1.30883,1.30882 v 13.08824 c 0,1.30883 1.30883,1.30883 1.30883,1.30883 h 3.92647 v 1.30882 c 0,1.30882 1.30883,1.30882 1.30883,1.30882 h 7.85294 c 0,0 1.30883,0 1.30883,-1.30882 v -1.30882 h 3.92647 c 0,0 1.30883,0 1.30883,-1.30883 v -13.08824 c 0,-1.30882 -1.30883,-1.30882 -1.30883,-1.30882 z m 1.30882,2.61764 h 15.7059 v 10.4706 h -15.7059 z"
         id="path7" />
    </g>
  </g>
</svg>
