<?xml version="1.0" encoding="UTF-8" standalone="no"?>
<svg
   viewBox="0 0 22 22"
   version="1.1"
   id="svg8"
   sodipodi:docname="lock.svg"
   inkscape:version="1.2.2 (b0a8486541, 2022-12-01)"
   inkscape:export-filename="lock.png"
   inkscape:export-xdpi="96"
   inkscape:export-ydpi="96"
   xmlns:inkscape="http://www.inkscape.org/namespaces/inkscape"
   xmlns:sodipodi="http://sodipodi.sourceforge.net/DTD/sodipodi-0.dtd"
   xmlns="http://www.w3.org/2000/svg"
   xmlns:svg="http://www.w3.org/2000/svg">
  <defs
     id="defs12" />
  <sodipodi:namedview
     id="namedview10"
     pagecolor="#ffffff"
     bordercolor="#000000"
     borderopacity="0.25"
     inkscape:showpageshadow="2"
     inkscape:pageopacity="0.0"
     inkscape:pagecheckerboard="0"
     inkscape:deskcolor="#d1d1d1"
     showgrid="false"
     inkscape:zoom="31.409091"
     inkscape:cx="3.6931983"
     inkscape:cy="11.031838"
     inkscape:window-width="1600"
     inkscape:window-height="836"
     inkscape:window-x="0"
     inkscape:window-y="0"
     inkscape:window-maximized="1"
     inkscape:current-layer="svg8" />
  <g
     transform="translate(0,-3.3896102)"
     id="g6">
    <path
       d="m 7.0000003,12.88961 c -1.662,0 -3,1.338 -3,3 v 4 c 0,1.662 1.338,3 3,3 H 15 c 1.662,0 3,-1.338 3,-3 v -4 c 0,-1.662 -1.338,-3 -3,-3 z m 0,1 H 15 c 1.108,0 2,0.892 2,2 v 4 c 0,1.108 -0.892,2 -2,2 H 7.0000003 c -1.108,0 -2,-0.892 -2,-2 v -4 c 0,-1.108 0.892,-2 2,-2 z"
       fill="#f8f8f2"
       id="path2"
       style="fill:#c6d0f5;fill-opacity:1" />
    <path
       d="m 11.000001,5.8896104 c -2.7700007,0 -5.0000007,2.23 -5.0000007,4.9999996 v 3 h 1 v -3 c 0,-2.2159996 1.7840005,-3.9999996 4.0000007,-3.9999996 2.216,0 3.999999,1.784 3.999999,3.9999996 v 3 h 1 v -3 C 16,8.1196104 13.770001,5.8896104 11.000001,5.8896104 Z"
       fill="#f8f8f2"
       id="path4"
       style="fill:#c6d0f5;fill-opacity:1" />
  </g>
</svg>
